<?xml version="1.0" encoding="UTF-8" standalone="no"?>
<svg
   height="16"
   viewBox="0 -960 640 640"
   width="16"
   fill="#e8eaed"
   version="1.1"
   id="svg4"
   sodipodi:docname="refresh.svg"
   inkscape:version="1.2.1 (9c6d41e410, 2022-07-14)"
   xmlns:inkscape="http://www.inkscape.org/namespaces/inkscape"
   xmlns:sodipodi="http://sodipodi.sourceforge.net/DTD/sodipodi-0.dtd"
   xmlns="http://www.w3.org/2000/svg"
   xmlns:svg="http://www.w3.org/2000/svg">
  <defs
     id="defs8" />
  <sodipodi:namedview
     id="namedview6"
     pagecolor="#ffffff"
     bordercolor="#000000"
     borderopacity="0.25"
     inkscape:showpageshadow="2"
     inkscape:pageopacity="0.0"
     inkscape:pagecheckerboard="0"
     inkscape:deskcolor="#d1d1d1"
     showgrid="false"
     inkscape:zoom="34.875"
     inkscape:cx="4.5304659"
     inkscape:cy="8"
     inkscape:window-width="1920"
     inkscape:window-height="1017"
     inkscape:window-x="-8"
     inkscape:window-y="-8"
     inkscape:window-maximized="1"
     inkscape:current-layer="svg4" />
  <path
     d="m 320,-320 q -134,0 -227,-93 -93,-93 -93,-227 0,-134 93,-227 93,-93 227,-93 69,0 132,28.5 63,28.5 108,81.5 v -110 h 80 v 280 H 360 v -80 h 168 q -32,-56 -87.5,-88 -55.5,-32 -120.5,-32 -100,0 -170,70 -70,70 -70,170 0,100 70,170 70,70 170,70 77,0 139,-44 62,-44 87,-116 h 84 q -28,106 -114,173 -86,67 -196,67 z"
     id="path2" />
</svg>
